<?xml version="1.0" encoding="utf-8"?>
<!-- Generator: Adobe Illustrator 24.3.0, SVG Export Plug-In . SVG Version: 6.00 Build 0)  -->
<svg version="1.1" id="圖層_1" xmlns="http://www.w3.org/2000/svg" xmlns:xlink="http://www.w3.org/1999/xlink" x="0px" y="0px"
	 viewBox="0 0 120 30" style="enable-background:new 0 0 120 30;" xml:space="preserve">
<style type="text/css">
	.st0{opacity:0.8;fill:#FFFFFF;}
	.st1{fill:#FFFFFF;}
</style>
<g>
	<path class="st0" d="M8,5.4h8.9c3.1,0,4.7,1.1,6,2.3c1.9,1.8,2.2,5.5,2.2,7.2c0,4.3-1.7,9.4-8.2,9.4H8V5.4z M12.5,7.2v15.4h2.4
		c3.5,0,5.5-1.9,5.5-8.1s-2.9-7.3-5.5-7.3C14.9,7.2,12.5,7.2,12.5,7.2z"/>
	<path class="st0" d="M31.7,22.6h8.5v1.8h-13v-19H40v1.8h-8.3v6.7h7.7v1.8h-7.7V22.6z"/>
	<path class="st0" d="M42.1,5.4h5.7L52,22l4.2-16.7h5.7v18.9h-4.5V8.6l-4,15.8h-2.8l-4-15.8v15.8h-4.5C42.1,24.4,42.1,5.4,42.1,5.4z
		"/>
	<path class="st0" d="M81.6,14.8c0,5.8-3.1,9.8-8.9,9.8c-5.7,0-8.9-4-8.9-9.8c0-5.9,3.3-9.8,8.9-9.8C78.4,5,81.6,8.9,81.6,14.8z
		 M68.6,14.8c0,6.7,1.7,7.9,4.1,7.9c2.5,0,4.2-1.3,4.2-7.9c0-6.7-1.7-7.9-4.2-7.9C70.3,6.9,68.6,8.2,68.6,14.8z"/>
	<path class="st1" d="M98,17l-4.9,7.3h-2.4l6.3-9l-5.8-9.9h5.5l3.5,6.7l4.4-6.7h2.4l-5.8,8.4l6.3,10.6H102L98,17z"/>
</g>
</svg>
