<svg id="圖層_1" data-name="圖層 1" xmlns="http://www.w3.org/2000/svg" xmlns:xlink="http://www.w3.org/1999/xlink" viewBox="0 0 532 532"><defs><style>.cls-1{fill:none;}.cls-2{clip-path:url(#clip-path);}.cls-3{fill:#587ba5;}.cls-4{fill:#a2a2a2;}.cls-5{fill:#fc0;}.cls-6{fill:#fff;}</style><clipPath id="clip-path"><rect class="cls-1" width="532" height="532" rx="266"/></clipPath></defs><g class="cls-2"><rect class="cls-3" width="532" height="532" rx="266"/><path class="cls-4" d="M422.16,608.64l-231-6.56s17.39-104-38.41-132.91c-38-19.69-71.79-111.68-62.18-174.26.12-.84.26-1.67.41-2.49,4.87-28,18.78-49.72,45.37-55.61,86-19,147.36-4.27,147.36-4.27s14.2.18,35.25,4.13l2.26.45C380.77,248.8,490.91,290.37,495.68,438,502.24,640.81,422.16,608.64,422.16,608.64Z"/><path class="cls-5" d="M318.92,236.67a84.84,84.84,0,0,1-7.17,31.1,83,83,0,0,1-46.61,44.57c-62.79,24-136.09.19-173.16-25.66-.15.82-3.1,16.31-3.22,17.15,16.42,11.22,96.74,22.06,112,22.06,23.13,0,45.4-3.84,65.22-11.43a85.26,85.26,0,0,0,47.86-45.78,87.42,87.42,0,0,0,7.36-31.56l-2.26-.45Z"/><path class="cls-4" d="M336,250.15l-36.83-92.61s44.19-75.76,9.47-84.18-70.5,36.83-70.5,36.83S171.85,87,146.6,106c0,0-42.1-58.93-67.35-47.35s9,95,9,95S36.11,230.15,76.09,274.35s190.47,80,259.92-24.2Z"/><path class="cls-4" d="M415,553.22c12.53,5.58,25.63,11.27,39.35,10.72s28.14-9.37,30.28-22.93c1.1-7-1.09-14.5,1.59-21.06,3.61-8.83,15.24-12.23,24.28-9.21s15.68,10.83,20.44,19.08c8.91,15.45,12.48,35.73,2.92,50.79-8.28,13.06-24,18.95-38.59,24-19.46,6.74-41.18,13.43-60,5.15S405.94,577.39,413,557.91"/><path class="cls-5" d="M207.53,208.51s-22.65-9.06-37.38,2.27l17,26.05Z"/><path class="cls-4" d="M88.58,327.47,130.5,550.65s-63.45,64.57,18.12,63.44S206.4,571,206.4,571L180.34,377.31"/><path class="cls-6" d="M146.56,615.74c-22.08,0-35.45-5.07-39.72-15.07-7.79-18.21,17.56-46,21.91-50.56L100.56,383.25l3.22-.54L132.25,551.2l-.59.59c-.29.3-29.29,30.13-21.82,47.6,3.84,9,16.86,13.38,38.76,13.07,30.45-.42,50.09-6.81,56.79-18.45,6-10.49-.34-22-.41-22.17l-.15-.27-.05-.31L186.66,436.44l3.23-.43L208,570.53c1.07,2,6.71,13.81.25,25.07-7.39,12.91-27.44,19.68-59.58,20.12Z"/><path class="cls-4" d="M195.07,327.47,237,550.65s-63.44,64.57,18.13,63.44S312.9,571,312.9,571L286.84,377.31"/><path class="cls-6" d="M253.06,615.74c-22.09,0-35.45-5.07-39.73-15.07-7.78-18.19,17.52-45.94,21.9-50.55l-16.84-89.8,3.21-.6,17.15,91.46-.6.61c-.29.3-29.29,30.13-21.82,47.6,3.84,9,16.87,13.4,38.76,13.07,30.48-.42,50.12-6.81,56.81-18.48,6-10.52-.36-22-.42-22.13l-.16-.28-26.1-194,3.24-.43,26,193.43c1.08,2,6.71,13.81.26,25.07-7.4,12.91-27.44,19.68-59.59,20.12Z"/></g></svg>